<svg width="1024" height="1024" viewBox="0 0 1024 1024" fill="none" xmlns="http://www.w3.org/2000/svg">
  <g stroke="#F4F6FA" stroke-width="18" stroke-linecap="round" stroke-linejoin="round">
    <circle cx="512" cy="540" r="308" />
    <path d="M222 545C244 398 367 276 516 262C662 248 794 329 842 462" />
    <path d="M810 500C805 645 688 758 543 777C417 793 300 744 230 645" />
  </g>

  <g fill="#D9DDE2">
    <polygon points="334,332 417,292 503,334 507,430 420,492 336,460" />
    <polygon points="528,332 610,292 695,334 700,432 620,494 529,446" />
    <polygon points="262,558 338,485 424,507 455,614 374,706 292,684" />
  </g>

  <g fill="#001F54" stroke="#F4F6FA" stroke-width="8">
    <path d="M507 245L522 245L522 631L507 631Z" />
    <path d="M496 631L533 631L533 766L496 766Z" />
    <path d="M501 180L529 180L529 245L501 245Z" />
    <path d="M486 146L544 146" stroke-linecap="round" />
    <path d="M500 122L530 122" stroke-linecap="round" />
    <path d="M509 95L521 95" stroke-linecap="round" />
    <path d="M401 759L418 759L418 650L401 650Z" />
    <path d="M382 759L398 759L398 690L382 690Z" />
    <path d="M420 759L436 759L436 679L420 679Z" />
  </g>

  <path d="M605 466L578 516L534 495L536 549L499 513L478 548L432 535L438 587L398 613L435 654L470 685L448 715L534 713L527 768L573 766L579 713L654 726L649 686L714 646L676 622L693 585L653 588L638 551L604 573L605 466Z" fill="#FF1236" stroke="#F4F6FA" stroke-width="12" stroke-linejoin="round"/>

  <path d="M634 633C706 610 777 593 871 578L895 633C786 678 712 709 641 729L634 633Z" fill="#FF1236" stroke="#F4F6FA" stroke-width="12" stroke-linejoin="round"/>
</svg>
